<mxfile host="app.diagrams.net" agent="Mozilla/5.0 (Windows NT 10.0; Win64; x64) AppleWebKit/537.36 (KHTML, like Gecko) Chrome/131.0.0.0 Safari/537.36" version="25.0.3">
  <diagram name="Página-1" id="LGRP8BfWBM2uZs7Yqd3Y">
    <mxGraphModel dx="1434" dy="746" grid="1" gridSize="10" guides="1" tooltips="1" connect="1" arrows="1" fold="1" page="1" pageScale="1" pageWidth="827" pageHeight="1169" math="0" shadow="0">
      <root>
        <mxCell id="0" />
        <mxCell id="1" parent="0" />
        <mxCell id="5ZGSNatJ9MMfOzqPutfi-1" value="Supervisor" style="shape=umlActor;verticalLabelPosition=bottom;verticalAlign=top;html=1;" parent="1" vertex="1">
          <mxGeometry x="50" y="150" width="30" height="60" as="geometry" />
        </mxCell>
        <mxCell id="5ZGSNatJ9MMfOzqPutfi-3" value="" style="html=1;whiteSpace=wrap;" parent="1" vertex="1">
          <mxGeometry x="160" y="95" width="450" height="170" as="geometry" />
        </mxCell>
        <mxCell id="5ZGSNatJ9MMfOzqPutfi-4" value="Monitoreo en tiempo real" style="ellipse;whiteSpace=wrap;html=1;" parent="1" vertex="1">
          <mxGeometry x="270" y="110" width="110" height="55" as="geometry" />
        </mxCell>
        <mxCell id="5ZGSNatJ9MMfOzqPutfi-5" value="" style="endArrow=open;endFill=1;endSize=12;html=1;rounded=0;exitX=0.5;exitY=0.5;exitDx=0;exitDy=0;exitPerimeter=0;entryX=0;entryY=0.5;entryDx=0;entryDy=0;" parent="1" source="5ZGSNatJ9MMfOzqPutfi-1" target="5ZGSNatJ9MMfOzqPutfi-4" edge="1">
          <mxGeometry width="160" relative="1" as="geometry">
            <mxPoint x="270" y="280" as="sourcePoint" />
            <mxPoint x="430" y="280" as="targetPoint" />
          </mxGeometry>
        </mxCell>
        <mxCell id="FYXYmjMhY-7jjn5XQobI-1" value="Vista de reportes" style="ellipse;whiteSpace=wrap;html=1;" parent="1" vertex="1">
          <mxGeometry x="270" y="190" width="110" height="55" as="geometry" />
        </mxCell>
        <mxCell id="FYXYmjMhY-7jjn5XQobI-2" value="" style="endArrow=open;endFill=1;endSize=12;html=1;rounded=0;exitX=0.5;exitY=0.5;exitDx=0;exitDy=0;exitPerimeter=0;entryX=0;entryY=0.5;entryDx=0;entryDy=0;" parent="1" source="5ZGSNatJ9MMfOzqPutfi-1" target="FYXYmjMhY-7jjn5XQobI-1" edge="1">
          <mxGeometry width="160" relative="1" as="geometry">
            <mxPoint x="75" y="190" as="sourcePoint" />
            <mxPoint x="280" y="148" as="targetPoint" />
          </mxGeometry>
        </mxCell>
        <mxCell id="WgsHYkFlC2ZOKwv7Y5AC-1" value="Gestión de inventarios bancarios" style="ellipse;whiteSpace=wrap;html=1;" parent="1" vertex="1">
          <mxGeometry x="490" y="152.5" width="110" height="55" as="geometry" />
        </mxCell>
        <mxCell id="WgsHYkFlC2ZOKwv7Y5AC-2" value="" style="endArrow=open;endFill=1;endSize=12;html=1;rounded=0;exitX=1;exitY=0.5;exitDx=0;exitDy=0;" parent="1" source="5ZGSNatJ9MMfOzqPutfi-4" target="WgsHYkFlC2ZOKwv7Y5AC-1" edge="1">
          <mxGeometry width="160" relative="1" as="geometry">
            <mxPoint x="75" y="190" as="sourcePoint" />
            <mxPoint x="280" y="148" as="targetPoint" />
          </mxGeometry>
        </mxCell>
        <mxCell id="WgsHYkFlC2ZOKwv7Y5AC-3" value="&amp;lt;&amp;lt;include&amp;gt;&amp;gt;" style="edgeLabel;html=1;align=center;verticalAlign=middle;resizable=0;points=[];" parent="WgsHYkFlC2ZOKwv7Y5AC-2" vertex="1" connectable="0">
          <mxGeometry x="-0.2525" y="-1" relative="1" as="geometry">
            <mxPoint x="10" y="-26" as="offset" />
          </mxGeometry>
        </mxCell>
        <mxCell id="WgsHYkFlC2ZOKwv7Y5AC-4" value="" style="endArrow=open;endFill=1;endSize=12;html=1;rounded=0;exitX=1;exitY=0.5;exitDx=0;exitDy=0;" parent="1" source="FYXYmjMhY-7jjn5XQobI-1" target="WgsHYkFlC2ZOKwv7Y5AC-1" edge="1">
          <mxGeometry width="160" relative="1" as="geometry">
            <mxPoint x="460" y="180" as="sourcePoint" />
            <mxPoint x="390" y="148" as="targetPoint" />
          </mxGeometry>
        </mxCell>
        <mxCell id="WgsHYkFlC2ZOKwv7Y5AC-5" value="&amp;lt;&amp;lt;include&amp;gt;&amp;gt;" style="edgeLabel;html=1;align=center;verticalAlign=middle;resizable=0;points=[];" parent="WgsHYkFlC2ZOKwv7Y5AC-4" vertex="1" connectable="0">
          <mxGeometry x="-0.2525" y="-1" relative="1" as="geometry">
            <mxPoint x="10" y="24" as="offset" />
          </mxGeometry>
        </mxCell>
      </root>
    </mxGraphModel>
  </diagram>
</mxfile>
